<svg xmlns="http://www.w3.org/2000/svg" fill="none" viewBox="0 0 16 16"><path fill="#000" d="M8 12v-.5a.5.5 0 0 0-.444.73zm-3-.5.277-.416zm4 2.43-.248.434a.5.5 0 0 0 .692-.664zM14 7h-.5c0 2.404-2.373 4.5-5.5 4.5v1c3.5 0 6.5-2.38 6.5-5.5zM2 7h.5c0-2.404 2.373-4.5 5.5-4.5v-1C4.5 1.5 1.5 3.881 1.5 7zm6-5v.5c3.127 0 5.5 2.096 5.5 4.5h1c0-3.119-3-5.5-6.5-5.5zm-3 9.5.277-.416c-.712-.475-1.415-1.099-1.936-1.81C2.82 8.56 2.5 7.788 2.5 7h-1c0 1.063.43 2.04 1.034 2.864.604.826 1.4 1.527 2.189 2.052zm0 0-.277.416a64 64 0 0 0 2.592 1.61 118 118 0 0 0 1.326.774l.082.047.022.013.005.003h.002L9 13.93l.248-.434-.002-.001-.005-.003-.02-.012-.081-.046-.3-.174c-.255-.148-.611-.356-1.015-.595a63 63 0 0 1-2.548-1.581zm4 2.43.444-.23-1-1.93L8 12l-.444.23 1 1.93z"/></svg>
